<svg width="26" height="19" viewBox="0 0 26 19" fill="none" xmlns="http://www.w3.org/2000/svg">
<path d="M24.7 0H1.3C0.955218 0 0.624558 0.142984 0.380761 0.397498C0.136964 0.652012 0 0.997206 0 1.35714L0 17.6429C0 18.0028 0.136964 18.348 0.380761 18.6025C0.624558 18.857 0.955218 19 1.3 19H24.7C25.0448 19 25.3754 18.857 25.6192 18.6025C25.863 18.348 26 18.0028 26 17.6429V1.35714C26 0.997206 25.863 0.652012 25.6192 0.397498C25.3754 0.142984 25.0448 0 24.7 0ZM16.9 5.42857H22.1V6.78571H16.9V5.42857ZM14.3 16.0184C14.0892 15.8502 13.8579 15.7119 13.6123 15.6071C12.0783 14.9177 9.763 13.8971 9.763 12.654C9.763 11.9062 10.2297 12.1505 10.4364 10.7825C10.5222 10.2152 10.9369 10.773 11.0149 9.47829C11.0149 8.96257 10.7887 8.83364 10.7887 8.83364C10.7887 8.83364 10.9031 8.07093 10.9486 7.48193C10.9954 6.86714 10.6613 5.03907 9.2885 4.636C9.0467 4.38086 8.8842 4.48536 9.6239 4.07686C8.0067 3.99679 7.6297 4.88029 6.7691 5.53036C6.0359 6.10036 5.837 7.00286 5.8734 7.48329C5.9215 8.07093 6.0359 8.835 6.0359 8.835C6.0359 8.835 5.8084 8.96257 5.8084 9.47829C5.8877 10.773 6.3024 10.2152 6.3869 10.7825C6.5923 12.1505 7.0616 11.9062 7.0616 12.654C7.0616 13.8971 4.7463 14.9177 3.2123 15.6071C2.99665 15.7015 2.79136 15.8198 2.6 15.96V2.71429H14.3V16.0184ZM23.4 10.8571H16.9V9.5H23.4V10.8571Z" fill="black"/>
</svg>
