<svg width="27" height="25" viewBox="0 0 27 25" fill="none" xmlns="http://www.w3.org/2000/svg">
<path d="M10.1458 0C8.29189 0 6.77508 1.4015 6.77508 3.11443V6.22887H0.337069C0.134827 6.22887 0.0337069 6.35344 0.0337069 6.50917V14.015C0.0337069 14.887 0.775258 15.5722 1.71905 15.5722H25.3139C26.2576 15.5722 26.9992 14.887 26.9992 14.015V6.50917C26.9992 6.3223 26.8644 6.22887 26.6958 6.22887H20.2578V3.11443C20.2578 1.4015 18.741 0 16.8871 0L10.1458 0ZM10.1458 3.11443H16.8871V6.22887H10.1458V3.11443ZM0.0337069 18.4063V24.6352C0.0337069 24.7909 0.168534 24.9155 0.337069 24.9155H26.6621C26.8307 24.9155 26.9655 24.7909 26.9655 24.6352V18.4063C26.4262 18.5932 25.8869 18.6866 25.2801 18.6866H1.68534C1.07862 18.6866 0.53931 18.562 0 18.4063H0.0337069Z" fill="black"/>
</svg>
