<svg width="22" height="27" viewBox="0 0 22 27" fill="none" xmlns="http://www.w3.org/2000/svg">
<path d="M10.7703 0.0237328C10.9225 -0.00791093 11.0797 -0.00791093 11.2319 0.0237328L21.0523 2.13331C21.6023 2.24934 22 2.77146 22 3.37269C22 3.97392 21.6023 4.49604 21.0523 4.61207L17.2862 5.42426V8.43569C17.2862 12.1644 14.4726 15.1863 11.0011 15.1863C7.52956 15.1863 4.716 12.1644 4.716 8.43569V5.42426L2.35909 4.91796V8.3513L3.13 12.4861C3.17419 12.734 3.11527 12.9924 2.96796 13.1875C2.82066 13.3827 2.59479 13.4987 2.35909 13.4987H0.787822C0.552131 13.4987 0.331171 13.3879 0.178954 13.1875C0.0267369 12.9871 -0.0321858 12.734 0.0169165 12.4861L0.787822 8.3513V4.56461C0.321351 4.39056 0.00218581 3.91591 0.00218581 3.37269C0.00218581 2.77146 0.399914 2.24934 0.949859 2.13331L10.7703 0.0237328ZM5.49673 17.2801C6.0123 17.1008 6.56716 17.3012 6.94034 17.7284L10.4266 21.7102C10.7359 22.0636 11.2613 22.0636 11.5707 21.7102L15.0569 17.7284C15.4301 17.3012 15.985 17.1008 16.5005 17.2801C19.6922 18.3824 22 21.5889 22 25.3809C22 26.2775 21.3224 27 20.4926 27H1.50963C0.679797 27 0.00218581 26.2722 0.00218581 25.3809C0.00218581 21.5889 2.30999 18.3824 5.49673 17.2801Z" fill="black"/>
</svg>
