<svg width="20" height="20" viewBox="0 0 20 20" fill="none" xmlns="http://www.w3.org/2000/svg">
<path d="M3.66667 2H11.1667C11.6087 2 12.0326 2.17559 12.3452 2.48816C12.6577 2.80072 12.8333 3.22464 12.8333 3.66667V5.33333H11.1667V3.66667H3.66667V17H11.1667V15.3333H12.8333V17C12.8333 17.442 12.6577 17.8659 12.3452 18.1785C12.0326 18.4911 11.6087 18.6667 11.1667 18.6667H3.66667C3.22464 18.6667 2.80072 18.4911 2.48816 18.1785C2.17559 17.8659 2 17.442 2 17V3.66667C2 3.22464 2.17559 2.80072 2.48816 2.48816C2.80072 2.17559 3.22464 2 3.66667 2Z" fill="black"/>
<path d="M12.0743 13.3251L13.2493 14.5001L17.416 10.3334L13.2493 6.16675L12.0743 7.34175L14.2243 9.50008H6.16602V11.1667H14.2243L12.0743 13.3251Z" fill="black"/>
</svg>
