<svg width="31" height="29" viewBox="0 0 31 29" fill="none" xmlns="http://www.w3.org/2000/svg">
<g clip-path="url(#clip0_289_7911)">
<path fill-rule="evenodd" clip-rule="evenodd" d="M19.3754 22.9583C19.3756 23.568 19.1295 24.1553 18.6863 24.6023C18.2432 25.0494 17.6357 25.3232 16.9858 25.3689L16.7921 25.375H14.2087C13.557 25.3752 12.9293 25.1449 12.4514 24.7303C11.9735 24.3158 11.6808 23.7476 11.6319 23.1396L11.6254 22.9583H19.3754ZM15.5004 2.41666C17.8448 2.41662 20.0975 3.2684 21.7834 4.79233C23.4693 6.31626 24.4565 8.39318 24.5369 10.585L24.5421 10.875V15.4232L26.8955 19.8263C26.9982 20.0184 27.0496 20.231 27.0453 20.4458C27.041 20.6605 26.9811 20.8711 26.8708 21.0595C26.7604 21.2479 26.6029 21.4085 26.4117 21.5275C26.2206 21.6464 26.0014 21.7203 25.773 21.7427L25.6245 21.75H5.37633C5.14663 21.7501 4.92033 21.698 4.71683 21.5983C4.51334 21.4987 4.33871 21.3543 4.20791 21.1777C4.07712 21.001 3.99405 20.7973 3.96584 20.5841C3.93762 20.3708 3.9651 20.1543 4.04591 19.9532L4.10533 19.8263L6.45875 15.4232V10.875C6.45875 8.6317 7.41135 6.48029 9.10699 4.89404C10.8026 3.3078 13.1024 2.41666 15.5004 2.41666ZM15.5004 4.83332C13.8362 4.83341 12.2362 5.43452 11.0341 6.51129C9.83207 7.58806 9.12077 9.05736 9.04854 10.6128L9.04208 10.875V15.4232C9.0421 15.7228 8.98253 16.0199 8.86642 16.2992L8.76954 16.5046L7.25829 19.3333H23.7438L22.2326 16.5034C22.0892 16.2355 22.0003 15.945 21.9704 15.6467L21.9587 15.4232V10.875C21.9587 9.27264 21.2783 7.73592 20.0671 6.60289C18.856 5.46985 17.2133 4.83332 15.5004 4.83332Z" fill="white"/>
</g>
<defs>
<clipPath id="clip0_289_7911">
<rect width="31" height="29" fill="white"/>
</clipPath>
</defs>
</svg>
