<svg width="21" height="17" viewBox="0 0 21 17" fill="none" xmlns="http://www.w3.org/2000/svg">
<path d="M3.81988 6.15989C3.81988 6.15989 1.41296 7.09589 1.01189 10.3719M16.9238 6.15989C16.9238 6.15989 19.3308 7.09589 19.7318 10.3719M7.56387 6.15989C7.56387 6.15989 9.81026 6.70604 10.3719 9.43588C10.9335 6.70604 13.1799 6.15989 13.1799 6.15989M8.49987 13.1799C8.49987 13.1799 6.53427 13.5309 5.69187 15.9879M12.2439 13.1799C12.2439 13.1799 14.2095 13.5309 15.0518 15.9879" stroke="black" stroke-width="2" stroke-linecap="round"/>
<path d="M10.3718 14.1158C11.6642 14.1158 12.7118 13.0681 12.7118 11.7758C12.7118 10.4834 11.6642 9.4358 10.3718 9.4358C9.0795 9.4358 8.03185 10.4834 8.03185 11.7758C8.03185 13.0681 9.0795 14.1158 10.3718 14.1158Z" stroke="black" stroke-width="2" stroke-linecap="round" stroke-linejoin="round"/>
<path d="M15.0514 6.62787C16.6022 6.62787 17.8594 5.37069 17.8594 3.81988C17.8594 2.26907 16.6022 1.01189 15.0514 1.01189C13.5006 1.01189 12.2434 2.26907 12.2434 3.81988C12.2434 5.37069 13.5006 6.62787 15.0514 6.62787Z" stroke="black" stroke-width="2" stroke-linecap="round" stroke-linejoin="round"/>
<path d="M5.69148 6.62787C7.24229 6.62787 8.49947 5.37069 8.49947 3.81988C8.49947 2.26907 7.24229 1.01189 5.69148 1.01189C4.14066 1.01189 2.88348 2.26907 2.88348 3.81988C2.88348 5.37069 4.14066 6.62787 5.69148 6.62787Z" stroke="black" stroke-width="2" stroke-linecap="round" stroke-linejoin="round"/>
</svg>
