<svg width="20" height="20" viewBox="0 0 20 20" fill="none" xmlns="http://www.w3.org/2000/svg">
<path d="M0.909091 13.1667H19.0909V15H0.909091V13.1667ZM1.95455 9.45417L2.72727 8.0975L3.5 9.45417L4.68182 8.76667L3.90909 7.41H5.45455V6.035H3.90909L4.68182 4.6875L3.5 4L2.72727 5.3475L1.95455 4L0.772727 4.6875L1.54545 6.035H0V7.41H1.54545L0.772727 8.76667L1.95455 9.45417ZM8.04545 8.76667L9.22727 9.45417L10 8.0975L10.7727 9.45417L11.9545 8.76667L11.1818 7.41H12.7273V6.035H11.1818L11.9545 4.6875L10.7727 4L10 5.3475L9.22727 4L8.04545 4.6875L8.81818 6.035H7.27273V7.41H8.81818L8.04545 8.76667ZM20 6.035H18.4545L19.2273 4.6875L18.0455 4L17.2727 5.3475L16.5 4L15.3182 4.6875L16.0909 6.035H14.5455V7.41H16.0909L15.3182 8.76667L16.5 9.45417L17.2727 8.0975L18.0455 9.45417L19.2273 8.76667L18.4545 7.41H20V6.035Z" fill="black"/>
</svg>
