<svg width="25" height="25" viewBox="0 0 25 25" fill="none" xmlns="http://www.w3.org/2000/svg">
<path d="M12.5 2.88851C14.3125 2.88851 15.7813 4.31757 15.7813 6.08108C15.7813 7.84459 14.3125 9.27365 12.5 9.27365C10.6875 9.27365 9.21875 7.84459 9.21875 6.08108C9.21875 4.31757 10.6875 2.88851 12.5 2.88851ZM12.5 16.5709C17.1406 16.5709 22.0312 18.7905 22.0312 19.7635V21.4358H2.96875V19.7635C2.96875 18.7905 7.85938 16.5709 12.5 16.5709ZM12.5 0C9.04688 0 6.25 2.72128 6.25 6.08108C6.25 9.44088 9.04688 12.1622 12.5 12.1622C15.9531 12.1622 18.75 9.44088 18.75 6.08108C18.75 2.72128 15.9531 0 12.5 0ZM12.5 13.6824C8.32812 13.6824 0 15.7196 0 19.7635V24.3243H25V19.7635C25 15.7196 16.6719 13.6824 12.5 13.6824Z" fill="white"/>
</svg>
